<svg width="407" height="414" viewBox="0 0 407 414" fill="none" xmlns="http://www.w3.org/2000/svg">
<path d="M282.574 207C282.574 251.467 247.145 287.5 203.459 287.5C159.774 287.5 124.345 251.467 124.345 207C124.345 162.533 159.774 126.5 203.459 126.5C247.145 126.5 282.574 162.533 282.574 207Z" stroke="#FF9B26" stroke-opacity="0.6"/>
<path d="M333.684 207.5C333.684 280.41 275.593 339.5 203.951 339.5C132.309 339.5 74.2172 280.41 74.2172 207.5C74.2172 134.59 132.309 75.5 203.951 75.5C275.593 75.5 333.684 134.59 333.684 207.5Z" stroke="#FF9B26" stroke-opacity="0.6"/>
<path d="M372.017 207C372.017 301.725 296.543 378.5 203.459 378.5C110.375 378.5 34.9013 301.725 34.9013 207C34.9013 112.275 110.375 35.5 203.459 35.5C296.543 35.5 372.017 112.275 372.017 207Z" stroke="#FF9B26" stroke-opacity="0.6"/>
<path d="M406.419 207C406.419 321.055 315.543 413.5 203.459 413.5C91.3761 413.5 0.5 321.055 0.5 207C0.5 92.945 91.3761 0.5 203.459 0.5C315.543 0.5 406.419 92.945 406.419 207Z" stroke="#FF9B26"/>
</svg>
