<svg width="391" height="383" viewBox="0 0 391 383" fill="none" xmlns="http://www.w3.org/2000/svg">
<path d="M390.188 257.699H240.501V171.078H390.188V257.699ZM241.414 256.786H389.275V171.991H241.414V256.786Z" fill="#E0E0E0"/>
<path d="M359.308 217.265H260.548V220.161H359.308V217.265Z" fill="#F0F0F0"/>
<path d="M366.112 228.061H260.548V231.221H366.112V228.061Z" fill="#F0F0F0"/>
<path d="M366.112 238.985H260.548V242.145H366.112V238.985Z" fill="#F0F0F0"/>
<path d="M295.063 201.583H260.548V209.1H295.063V201.583Z" fill="#F0F0F0"/>
<path d="M389.731 171.534H240.985V185.326H389.731V171.534Z" fill="#E0E0E0"/>
<path d="M378.287 183.262C378.096 183.079 380.014 180.768 382.562 178.101C385.11 175.434 387.348 173.416 387.53 173.589C387.713 173.763 385.804 176.083 383.256 178.759C380.708 181.435 378.47 183.444 378.287 183.262Z" fill="white"/>
<path d="M387.549 183.262C387.366 183.444 385.137 181.435 382.58 178.759C380.023 176.083 378.114 173.772 378.306 173.589C378.497 173.407 380.717 175.416 383.274 178.101C385.831 180.787 387.722 183.079 387.549 183.262Z" fill="white"/>
<path d="M205.995 0H57.2483V85.717H205.995V0Z" fill="#E6E6E6"/>
<path d="M175.58 45.7401H76.821V48.6354H175.58V45.7401Z" fill="#F0F0F0"/>
<path d="M182.385 56.5358H76.821V59.696H182.385V56.5358Z" fill="#F0F0F0"/>
<path d="M182.385 67.4593H76.821V70.6194H182.385V67.4593Z" fill="#F0F0F0"/>
<path d="M111.336 30.058H76.821V37.5748H111.336V30.058Z" fill="#F0F0F0"/>
<path d="M205.995 0H57.2483V13.7914H205.995V0Z" fill="#E0E0E0"/>
<path d="M194.048 11.6634C193.857 11.4899 195.775 9.16997 198.323 6.50302C200.871 3.83606 203.109 1.81758 203.291 2.00025C203.474 2.18292 201.565 4.49367 199.017 7.16062C196.469 9.82757 194.231 11.8278 194.048 11.6634Z" fill="white"/>
<path d="M203.291 11.6634C203.108 11.846 200.88 9.83669 198.322 7.16061C195.765 4.48452 193.856 2.18291 194.048 2.00024C194.24 1.81757 196.459 3.82691 199.017 6.503C201.574 9.17909 203.483 11.4898 203.291 11.6634Z" fill="white"/>
<path d="M149.66 159.232H0V72.6014H149.66V159.232ZM0.91334 158.318H148.747V73.5147H0.91334V158.318Z" fill="#E0E0E0"/>
<path d="M118.789 118.798H20.0295V121.693H118.789V118.798Z" fill="#F0F0F0"/>
<path d="M125.593 129.594H20.0295V132.754H125.593V129.594Z" fill="#F0F0F0"/>
<path d="M125.593 140.517H20.0295V143.678H125.593V140.517Z" fill="#F0F0F0"/>
<path d="M54.5447 103.116H20.0295V110.633H54.5447V103.116Z" fill="#F0F0F0"/>
<path d="M149.203 73.0581H0.456543V86.8495H149.203V73.0581Z" fill="#E0E0E0"/>
<path d="M322.381 179.079H146.746V336.319H322.381V179.079Z" fill="#E6E6E6"/>
<path d="M155.578 129.548H17.9927V272.495H155.578V129.548Z" fill="#F0F0F0"/>
<path d="M155.578 129.548H17.9927V145.121H155.578V129.548Z" fill="#E0E0E0"/>
<path d="M29.3547 137.175C29.3296 137.739 29.1393 138.284 28.8073 138.742C28.4754 139.199 28.0164 139.549 27.4873 139.748C26.9582 139.947 26.3823 139.986 25.8312 139.861C25.28 139.736 24.7778 139.451 24.3868 139.043C23.9959 138.635 23.7334 138.12 23.632 137.564C23.5306 137.008 23.5948 136.435 23.8165 135.915C24.0382 135.395 24.4077 134.951 24.8791 134.639C25.3506 134.328 25.9033 134.161 26.4685 134.161C27.2502 134.18 27.9925 134.507 28.5333 135.072C29.0741 135.637 29.3694 136.393 29.3547 137.175Z" fill="white"/>
<path d="M41.0728 137.174C41.0495 137.742 40.8599 138.29 40.5275 138.75C40.1952 139.211 39.7347 139.563 39.2036 139.764C38.6724 139.965 38.0939 140.005 37.5401 139.879C36.9862 139.754 36.4815 139.468 36.0888 139.058C35.6961 138.648 35.4326 138.131 35.3312 137.573C35.2298 137.014 35.295 136.438 35.5185 135.916C35.7421 135.394 36.1143 134.949 36.5887 134.637C37.0631 134.325 37.6188 134.159 38.1867 134.16C38.9683 134.18 39.7107 134.507 40.2514 135.072C40.7922 135.637 41.0875 136.393 41.0728 137.174Z" fill="white"/>
<path d="M52.7911 137.174C52.7678 137.742 52.5782 138.29 52.2458 138.75C51.9134 139.211 51.453 139.563 50.9218 139.764C50.3906 139.965 49.8121 140.005 49.2583 139.879C48.7045 139.754 48.1998 139.468 47.8071 139.058C47.4143 138.648 47.1509 138.131 47.0495 137.573C46.9481 137.014 47.0132 136.438 47.2368 135.916C47.4604 135.394 47.8325 134.949 48.3069 134.637C48.7813 134.325 49.3371 134.159 49.9049 134.16C50.6866 134.18 51.4289 134.507 51.9697 135.072C52.5105 135.637 52.8058 136.393 52.7911 137.174Z" fill="white"/>
<path d="M370.542 31.2636H194.907V206.314H370.542V31.2636Z" fill="#F0F0F0"/>
<path d="M370.542 31.2636H194.907V51.7681H370.542V31.2636Z" fill="#E0E0E0"/>
<path d="M209.867 41.3104C209.835 42.0558 209.584 42.7753 209.147 43.3797C208.709 43.984 208.104 44.4465 207.406 44.7097C206.708 44.9729 205.947 45.0253 205.22 44.8603C204.492 44.6953 203.829 44.3202 203.313 43.7816C202.796 43.243 202.45 42.5646 202.315 41.8306C202.181 41.0966 202.266 40.3394 202.558 39.653C202.851 38.9666 203.338 38.3812 203.961 37.9695C204.583 37.5579 205.312 37.338 206.059 37.3373C207.09 37.3613 208.069 37.7928 208.783 38.5374C209.497 39.282 209.887 40.2791 209.867 41.3104Z" fill="white"/>
<path d="M224.179 38.6252C224.686 39.175 225.019 39.8617 225.138 40.5997C225.257 41.3377 225.156 42.0943 224.847 42.7753C224.539 43.4563 224.037 44.0316 223.405 44.4294C222.772 44.8273 222.036 45.0301 221.289 45.0127C220.541 44.9952 219.816 44.7583 219.202 44.3314C218.589 43.9044 218.114 43.3064 217.838 42.6118C217.562 41.9171 217.496 41.1566 217.65 40.425C217.803 39.6933 218.168 39.0229 218.699 38.4973C219.444 37.7889 220.438 37.4046 221.466 37.4286C222.493 37.4526 223.469 37.8829 224.179 38.6252Z" fill="white"/>
<path d="M240.72 41.3104C240.688 42.0558 240.437 42.7753 240 43.3797C239.562 43.984 238.957 44.4465 238.258 44.7097C237.56 44.9729 236.8 45.0253 236.073 44.8603C235.345 44.6953 234.682 44.3202 234.165 43.7816C233.649 43.243 233.302 42.5646 233.168 41.8306C233.034 41.0966 233.119 40.3394 233.411 39.653C233.703 38.9666 234.191 38.3812 234.813 37.9695C235.436 37.5579 236.165 37.338 236.911 37.3373C237.942 37.3613 238.922 37.7928 239.636 38.5374C240.35 39.282 240.74 40.2791 240.72 41.3104Z" fill="white"/>
<path d="M332.602 382.763C332.602 382.89 269.179 383 190.97 383C112.761 383 49.311 382.89 49.311 382.763C49.311 382.635 112.724 382.525 190.97 382.525C269.216 382.525 332.602 382.644 332.602 382.763Z" fill="#263238"/>
<path d="M270.806 270.951C256.695 261.097 253.498 242.802 254.055 226.353C254.146 223.613 253.845 220.709 255.151 218.307C256.457 215.904 259.508 214.251 261.964 215.402C264.001 216.361 264.887 218.736 266.029 220.7C267.552 223.315 269.785 225.446 272.468 226.846C274.212 227.76 276.377 228.308 278.103 227.358C280.478 226.052 280.752 222.791 280.734 220.051C280.734 214.955 280.703 209.864 280.642 204.78C280.478 202.05 280.756 199.311 281.464 196.67C282.314 194.076 284.204 191.674 286.789 190.943C289.374 190.212 292.598 191.719 293.182 194.386C293.283 195.516 293.311 196.651 293.265 197.784C293.338 198.926 293.867 200.177 294.936 200.524C296.005 200.871 297.119 200.076 297.941 199.273C300.754 196.533 302.672 192.961 304.453 189.436C306.234 185.91 307.979 182.284 310.536 179.28C313.093 176.275 316.628 173.891 320.583 173.663C324.537 173.434 328.657 175.864 329.643 179.7C330.629 183.536 328.392 187.454 325.99 190.568C322.365 195.191 318.092 199.267 313.303 202.67C312.369 203.181 311.623 203.978 311.175 204.944C310.582 206.771 312.308 208.598 314.107 209.173C316.144 209.849 318.354 209.639 320.5 209.895C322.647 210.15 324.93 211.082 325.743 213.091C326.857 215.886 324.519 218.809 322.227 220.727C317.623 224.563 312.396 227.581 306.773 229.65C304.764 230.381 302.654 231.029 301.028 232.436C299.402 233.842 298.434 236.299 299.411 238.227C300.389 240.154 302.9 240.766 305.01 240.373C307.12 239.98 308.992 238.848 311.002 238.09C314.756 236.674 319.596 236.93 321.962 240.172C322.695 241.289 323.159 242.56 323.317 243.887C323.475 245.213 323.324 246.558 322.875 247.817C321.961 250.32 320.554 252.615 318.738 254.566C312.756 261.713 304.983 267.144 296.215 270.303C287.511 273.317 279.446 274.139 270.797 270.97" fill="#FF8A01"/>
<path d="M325.624 175.918C325.624 175.918 325.542 176.01 325.359 176.174L324.546 176.896C323.834 177.535 322.784 178.467 321.459 179.7C317.704 183.186 314.218 186.951 311.029 190.961C308.992 193.491 306.882 196.359 304.635 199.473C302.389 202.588 300.069 205.949 297.767 209.52C295.313 213.286 293.066 217.183 291.036 221.193C289.976 223.284 289.045 225.467 288.086 227.696L285.254 234.5C281.522 243.071 278.272 251.843 275.518 260.777C273.3 268.086 271.771 275.587 270.952 283.181C270.42 288.306 270.335 293.468 270.696 298.607C270.842 300.434 270.979 301.831 271.107 302.781C271.162 303.238 271.198 303.603 271.235 303.868V304.243C271.195 304.124 271.168 304.002 271.152 303.877C271.107 303.613 271.052 303.256 270.979 302.8C270.814 301.886 270.641 300.443 270.477 298.617C270.036 293.467 270.066 288.288 270.568 283.145C271.337 275.518 272.832 267.982 275.034 260.64C277.765 251.681 281.006 242.887 284.743 234.299L287.647 227.522C288.606 225.303 289.547 223.102 290.616 221.001C292.66 216.979 294.926 213.073 297.402 209.301C299.74 205.648 302.096 202.341 304.316 199.254C306.535 196.167 308.682 193.281 310.709 190.76C313.93 186.76 317.464 183.022 321.277 179.581C322.628 178.366 323.706 177.453 324.437 176.841L325.286 176.156C325.39 176.065 325.503 175.986 325.624 175.918Z" fill="#263238"/>
<path d="M290.734 220.983C290.606 220.606 290.517 220.218 290.469 219.823C290.323 219.065 290.159 217.996 289.967 216.608C289.574 213.868 289.173 210.114 288.743 205.958C288.314 201.802 287.83 198.04 287.428 195.327C287.218 193.975 287.035 192.888 286.907 192.13C286.808 191.742 286.756 191.343 286.752 190.943C286.909 191.309 287.023 191.692 287.09 192.085C287.291 192.833 287.519 193.911 287.775 195.272C288.296 198.012 288.807 201.739 289.236 205.903C289.666 210.068 290.031 213.722 290.314 216.562C290.451 217.841 290.57 218.928 290.661 219.795C290.732 220.187 290.757 220.585 290.734 220.983Z" fill="#263238"/>
<path d="M325.88 214.425C325.435 214.522 324.983 214.577 324.528 214.589C323.615 214.671 322.318 214.781 320.71 214.964C317.495 215.311 313.075 215.95 308.225 216.863C303.375 217.777 299.018 218.809 295.886 219.603C294.324 220.005 293.063 220.371 292.232 220.617C291.789 220.775 291.329 220.885 290.862 220.946C291.284 220.734 291.724 220.56 292.177 220.425C293.036 220.124 294.278 219.704 295.831 219.256C298.945 218.343 303.302 217.256 308.17 216.325C312.294 215.536 316.455 214.957 320.637 214.589C322.254 214.452 323.56 214.397 324.473 214.379C324.942 214.347 325.414 214.363 325.88 214.425Z" fill="#263238"/>
<path d="M275.481 260.001C275.384 259.868 275.304 259.724 275.244 259.571L274.641 258.302C274.121 257.197 273.417 255.562 272.577 253.561C270.878 249.543 268.714 243.917 266.412 237.669C264.11 231.422 261.991 225.796 260.384 221.732C259.598 219.759 258.95 218.142 258.466 216.937L257.954 215.63C257.884 215.48 257.834 215.32 257.808 215.156C257.906 215.288 257.986 215.432 258.046 215.585L258.649 216.854C259.16 217.959 259.872 219.594 260.713 221.595C262.412 225.613 264.576 231.239 266.878 237.487C269.179 243.734 271.298 249.36 272.906 253.424C273.691 255.397 274.34 257.014 274.815 258.219C275.025 258.74 275.198 259.133 275.335 259.526C275.406 259.676 275.455 259.836 275.481 260.001Z" fill="#263238"/>
<path d="M322.135 244.958C321.989 245.042 321.832 245.106 321.669 245.15L320.318 245.606L315.322 247.223C311.102 248.593 305.275 250.547 298.882 252.703C292.488 254.858 286.634 256.776 282.387 258.055C280.268 258.704 278.541 259.197 277.345 259.526L275.966 259.882C275.805 259.933 275.64 259.966 275.473 259.982C275.619 259.898 275.775 259.834 275.938 259.79L277.29 259.334L282.286 257.717C286.506 256.347 292.333 254.393 298.726 252.237C305.12 250.082 310.965 248.164 315.212 246.885C317.34 246.236 319.057 245.743 320.263 245.414L321.642 245.058C321.802 245.007 321.968 244.974 322.135 244.958Z" fill="#263238"/>
<path d="M303.101 23.4089L298.397 25.0895L296.379 18.9427C292.671 7.60814 280.852 1.58923 269.992 5.41612C259.133 9.24302 253.351 21.6736 257.059 33.0081L259.078 39.1549L254.356 40.8446C252.555 41.543 251.093 42.9084 250.273 44.657C249.453 46.4056 249.339 48.4029 249.954 50.2337L263.042 90.2289C263.314 91.1352 263.765 91.9777 264.368 92.7062C264.972 93.4348 265.716 94.0346 266.556 94.4699C267.396 94.9053 268.315 95.1674 269.258 95.2406C270.202 95.3138 271.15 95.1966 272.047 94.896L320.792 77.4604C322.617 76.7632 324.1 75.3857 324.929 73.6176C325.759 71.8495 325.87 69.8286 325.24 67.9799L312.143 27.9848C311.864 27.081 311.406 26.2426 310.796 25.5196C310.187 24.7967 309.437 24.204 308.594 23.777C307.75 23.3499 306.828 23.0972 305.885 23.034C304.941 22.9707 303.994 23.0983 303.101 23.4089ZM265.946 29.8023C264.946 26.8551 265.126 23.6354 266.447 20.8176C267.768 17.9999 270.129 15.8027 273.034 14.6865C274.468 14.1957 275.987 13.9989 277.499 14.1078C279.011 14.2167 280.486 14.6291 281.835 15.3204C283.185 16.0117 284.381 16.9678 285.353 18.1315C286.325 19.2952 287.052 20.6427 287.492 22.0937L289.501 28.2405L267.956 35.9491L265.946 29.8023ZM293.346 65.2947L296.689 75.5058C296.751 75.7106 296.731 75.9311 296.634 76.1216C296.537 76.3121 296.37 76.4579 296.169 76.5288L291.483 78.2002C291.297 78.2519 291.098 78.2294 290.927 78.1375C290.757 78.0455 290.629 77.8913 290.57 77.707L287.2 67.5415C285.341 67.4403 283.558 66.7737 282.089 65.6311C280.62 64.4885 279.535 62.9244 278.98 61.1481C278.185 58.7999 278.33 56.2354 279.384 53.9915C280.438 51.7477 282.319 49.9985 284.633 49.1103C285.776 48.7199 286.986 48.5635 288.19 48.6505C289.394 48.7375 290.569 49.0661 291.644 49.6167C292.718 50.1672 293.671 50.9286 294.446 51.8552C295.22 52.7819 295.8 53.855 296.15 55.0105C296.738 56.8148 296.787 58.7514 296.29 60.5829C295.794 62.4145 294.774 64.0614 293.356 65.3221L293.346 65.2947Z" fill="#FF8A01"/>
<path d="M298.187 24.9798C298.187 25.1077 289.465 28.3866 278.615 32.2865C267.764 36.1865 258.914 39.3192 258.868 39.2279C258.822 39.1366 267.59 35.8303 278.45 31.9212C289.31 28.0121 298.142 24.8611 298.187 24.9798Z" fill="#263238"/>
<path d="M308.544 26.6604C308.585 26.7397 308.618 26.8221 308.645 26.907C308.718 27.0897 308.8 27.3271 308.91 27.6194C309.147 28.2861 309.476 29.2086 309.887 30.3594L313.394 40.5706C314.856 44.8998 316.6 50.0328 318.536 55.732C319.45 58.5908 320.527 61.5683 321.532 64.701C322.07 66.3154 322.302 68.0158 322.217 69.7152C322.14 70.5991 321.888 71.4589 321.477 72.2452C321.038 73.0289 320.452 73.7205 319.751 74.2819C318.34 75.312 316.774 76.1105 315.111 76.6475L310.408 78.3372L301.503 81.5247L286.423 86.8952L276.24 90.4755L273.499 91.3888L272.769 91.6263C272.691 91.661 272.607 91.6826 272.522 91.6902C272.522 91.6902 272.595 91.6902 272.751 91.5806L273.463 91.2975L276.203 90.2654L286.332 86.539L301.384 81.0589L310.271 77.844L314.974 76.1452C316.589 75.63 318.11 74.8558 319.477 73.8527C320.129 73.3317 320.675 72.6897 321.085 71.9621C321.471 71.2348 321.704 70.4359 321.77 69.6148C321.854 67.9773 321.631 66.3386 321.112 64.7832C320.126 61.6779 319.084 58.673 318.144 55.8142C316.244 50.1058 314.49 44.9546 313.102 40.6254C311.714 36.2961 310.545 32.8163 309.741 30.3686C309.357 29.1721 309.065 28.2405 308.827 27.5646L308.608 26.8339C308.581 26.7786 308.559 26.7204 308.544 26.6604Z" fill="#263238"/>
<path d="M282.825 14.0654C282.825 14.0654 282.34 13.8279 281.445 13.4626C280.17 12.9724 278.82 12.7007 277.454 12.6588C275.429 12.5894 273.414 12.97 271.554 13.7731C269.292 14.7732 267.358 16.3908 265.973 18.4403C264.58 20.4839 263.832 22.899 263.827 25.3725C263.846 27.3999 264.154 29.4142 264.74 31.3549C265.215 33.0172 265.709 34.3415 266.037 35.264C266.231 35.7326 266.39 36.2149 266.512 36.7071C266.253 36.269 266.036 35.8072 265.864 35.3279C265.489 34.4146 264.951 33.1177 264.421 31.4463C263.771 29.4852 263.417 27.4381 263.37 25.3725C263.346 22.8055 264.111 20.2931 265.562 18.1754C266.995 16.0511 269.008 14.3835 271.362 13.3713C273.28 12.5637 275.358 12.2075 277.436 12.33C278.832 12.4012 280.203 12.7262 281.482 13.2891C281.824 13.4468 282.154 13.63 282.468 13.8371C282.598 13.8941 282.718 13.9712 282.825 14.0654Z" fill="#263238"/>
<path d="M283.245 49.8044C283.391 49.716 283.543 49.6397 283.702 49.576C284.159 49.3697 284.632 49.2017 285.117 49.0737C285.887 48.8465 286.681 48.7116 287.483 48.6718C288.573 48.6132 289.664 48.778 290.689 49.1559C293.027 49.9779 295.173 52.3617 296.233 55.5493C296.741 57.2599 296.741 59.0813 296.233 60.7919C295.669 62.6485 294.659 64.3387 293.292 65.7148L293.346 65.4682C294.561 68.8019 295.886 72.4187 297.256 76.1908L297.338 76.4191L297.109 76.5013L295.018 77.1954L290.451 78.7207L290.223 78.7938L290.15 78.5655C288.898 74.7842 287.528 71.2587 286.496 67.7972L286.697 67.9524C284.912 67.8041 283.209 67.1339 281.802 66.0253C280.528 65.0445 279.484 63.7977 278.742 62.3719C278.073 61.1075 277.739 59.6922 277.774 58.2619C277.816 56.8001 278.181 55.3656 278.843 54.0614C279.504 52.7571 280.446 51.6153 281.601 50.7177C282.076 50.3319 282.609 50.0237 283.181 49.8044C282.665 50.1105 282.165 50.4428 281.683 50.7999C280.415 51.873 279.443 53.2535 278.861 54.8095C278.361 55.9828 278.127 57.2522 278.176 58.5265C278.225 59.8009 278.556 61.0486 279.144 62.1801C279.874 63.5518 280.893 64.7485 282.131 65.6874C283.473 66.7411 285.096 67.3764 286.798 67.514H286.953L286.999 67.651C288.003 71.0487 289.383 74.6016 290.652 78.4011L290.351 78.2549L294.917 76.7296L297 76.0264L296.854 76.3369C295.493 72.5648 294.178 68.9388 292.972 65.6052V65.4682L293.082 65.3586C294.409 64.0396 295.399 62.4198 295.968 60.6366C296.452 59.0003 296.452 57.2587 295.968 55.6224C294.972 52.5535 292.917 50.2245 290.689 49.4025C289.702 49.0221 288.649 48.845 287.592 48.8819C286.803 48.9 286.019 49.0072 285.254 49.2016C283.893 49.5395 283.254 49.85 283.245 49.8044Z" fill="#263238"/>
<path d="M255.014 313.522L163.78 313.102C158.511 313.073 153.47 310.954 149.762 307.211C146.055 303.467 143.984 298.405 144.006 293.136L144.974 64.427C144.985 61.8167 145.51 59.2342 146.52 56.8269C147.529 54.4197 149.003 52.235 150.857 50.3978C152.712 48.5605 154.91 47.1067 157.326 46.1194C159.742 45.1322 162.33 44.6308 164.94 44.6441L256.164 45.0642C261.433 45.0908 266.476 47.2074 270.185 50.9492C273.894 54.691 275.967 59.752 275.947 65.0207L274.979 293.721C274.968 296.332 274.443 298.916 273.434 301.324C272.425 303.732 270.951 305.918 269.097 307.757C267.243 309.595 265.045 311.051 262.629 312.04C260.212 313.029 257.625 313.533 255.014 313.522Z" fill="#455A64"/>
<path d="M256.027 52.9281H238.345C237.768 52.9388 237.199 53.063 236.67 53.2938C236.141 53.5245 235.663 53.8571 235.262 54.2727C234.862 54.6883 234.547 55.1787 234.337 55.7159C234.126 56.2531 234.023 56.8265 234.034 57.4035V60.6093C234.045 61.1858 233.942 61.7588 233.731 62.2954C233.52 62.8321 233.205 63.3219 232.805 63.7367C232.405 64.1516 231.926 64.4834 231.397 64.7131C230.868 64.9429 230.3 65.066 229.723 65.0755L195.254 64.9202C194.087 64.8892 192.981 64.3965 192.178 63.5506C191.375 62.7046 190.941 61.5745 190.97 60.4083V57.2025C190.999 56.0379 190.566 54.9091 189.765 54.0634C188.964 53.2177 187.86 52.7241 186.696 52.6906H180.476L164.995 52.6176C161.312 52.5956 157.771 54.0337 155.147 56.6168C152.523 59.2 151.029 62.7177 150.993 66.3999L150.08 289.638C150.071 291.465 150.423 293.276 151.114 294.967C151.805 296.657 152.823 298.196 154.109 299.493C155.394 300.791 156.923 301.822 158.608 302.529C160.292 303.236 162.099 303.604 163.926 303.613L254.968 304.033C256.796 304.041 258.607 303.689 260.299 302.998C261.991 302.306 263.53 301.288 264.829 300.001C266.127 298.714 267.16 297.185 267.867 295.499C268.574 293.814 268.943 292.005 268.951 290.177L269.864 66.9387C269.886 63.2462 268.441 59.6962 265.846 57.0689C263.251 54.4416 259.72 52.9522 256.027 52.9281Z" fill="white"/>
<path d="M243.78 274.249L176.083 273.956C175.38 273.956 174.813 273.189 174.822 272.258L174.895 254.548C174.895 253.635 175.471 252.849 176.174 252.849L243.871 253.16C244.261 253.227 244.609 253.442 244.844 253.761C245.079 254.079 245.182 254.475 245.131 254.868L245.067 272.559C245.067 273.5 244.483 274.258 243.78 274.249Z" fill="#FF8A01"/>
<path d="M198.409 261.676C198.374 261.383 198.234 261.156 197.988 260.994C197.741 260.832 197.439 260.752 197.081 260.752C196.819 260.752 196.59 260.794 196.394 260.879C196.199 260.963 196.047 261.08 195.937 261.228C195.83 261.376 195.776 261.545 195.776 261.733C195.776 261.891 195.813 262.027 195.888 262.14C195.965 262.252 196.063 262.345 196.183 262.421C196.302 262.494 196.427 262.554 196.558 262.602C196.689 262.649 196.809 262.686 196.919 262.715L197.52 262.877C197.674 262.917 197.845 262.973 198.034 263.044C198.224 263.116 198.406 263.213 198.579 263.336C198.755 263.457 198.899 263.613 199.013 263.804C199.126 263.994 199.183 264.228 199.183 264.505C199.183 264.825 199.099 265.114 198.932 265.372C198.766 265.63 198.524 265.835 198.204 265.987C197.886 266.139 197.501 266.215 197.046 266.215C196.623 266.215 196.256 266.146 195.946 266.01C195.638 265.873 195.396 265.683 195.218 265.438C195.043 265.194 194.944 264.91 194.921 264.586H195.66C195.679 264.81 195.755 264.994 195.885 265.141C196.018 265.285 196.186 265.393 196.388 265.464C196.592 265.533 196.811 265.568 197.046 265.568C197.32 265.568 197.565 265.524 197.783 265.435C198 265.345 198.172 265.22 198.299 265.06C198.426 264.898 198.49 264.709 198.49 264.494C198.49 264.297 198.435 264.138 198.325 264.014C198.216 263.891 198.071 263.791 197.892 263.714C197.713 263.637 197.52 263.57 197.312 263.512L196.584 263.304C196.122 263.171 195.756 262.982 195.487 262.735C195.217 262.489 195.083 262.166 195.083 261.768C195.083 261.437 195.172 261.148 195.351 260.902C195.532 260.653 195.775 260.461 196.079 260.324C196.385 260.186 196.727 260.116 197.104 260.116C197.485 260.116 197.824 260.185 198.12 260.321C198.417 260.456 198.652 260.641 198.825 260.876C199 261.111 199.093 261.377 199.102 261.676H198.409ZM201.076 260.197V266.111H200.36V260.197H201.076ZM207.202 260.197V266.111H206.509L203.286 261.468H203.228V266.111H202.512V260.197H203.205L206.439 264.852H206.497V260.197H207.202ZM212.677 262.045C212.614 261.851 212.53 261.677 212.426 261.523C212.324 261.367 212.202 261.234 212.059 261.124C211.919 261.014 211.759 260.931 211.58 260.873C211.401 260.815 211.204 260.786 210.991 260.786C210.64 260.786 210.322 260.877 210.035 261.058C209.748 261.239 209.52 261.505 209.351 261.858C209.181 262.21 209.097 262.642 209.097 263.154C209.097 263.666 209.182 264.098 209.354 264.451C209.525 264.803 209.757 265.069 210.049 265.25C210.342 265.431 210.671 265.522 211.037 265.522C211.376 265.522 211.674 265.45 211.932 265.305C212.192 265.159 212.394 264.953 212.539 264.687C212.685 264.42 212.758 264.105 212.758 263.743L212.977 263.789H211.199V263.154H213.451V263.789C213.451 264.276 213.347 264.7 213.139 265.06C212.933 265.42 212.648 265.699 212.284 265.897C211.923 266.094 211.507 266.192 211.037 266.192C210.513 266.192 210.053 266.068 209.657 265.822C209.262 265.576 208.954 265.225 208.733 264.771C208.513 264.317 208.404 263.778 208.404 263.154C208.404 262.686 208.466 262.266 208.591 261.892C208.718 261.517 208.897 261.197 209.128 260.933C209.359 260.67 209.633 260.468 209.948 260.327C210.264 260.187 210.612 260.116 210.991 260.116C211.303 260.116 211.593 260.163 211.863 260.258C212.134 260.35 212.376 260.482 212.588 260.653C212.801 260.823 212.979 261.026 213.122 261.263C213.264 261.498 213.362 261.758 213.416 262.045H212.677ZM199.056 270.197H199.772V274.113C199.772 274.517 199.677 274.878 199.486 275.195C199.298 275.511 199.031 275.76 198.686 275.943C198.342 276.124 197.937 276.215 197.474 276.215C197.01 276.215 196.605 276.124 196.261 275.943C195.916 275.76 195.649 275.511 195.458 275.195C195.269 274.878 195.175 274.517 195.175 274.113V270.197H195.891V274.055C195.891 274.344 195.955 274.601 196.082 274.826C196.209 275.049 196.39 275.225 196.625 275.354C196.861 275.481 197.144 275.545 197.474 275.545C197.803 275.545 198.086 275.481 198.323 275.354C198.559 275.225 198.74 275.049 198.865 274.826C198.992 274.601 199.056 274.344 199.056 274.055V270.197ZM201.202 276.111V270.197H203.2C203.664 270.197 204.043 270.281 204.338 270.448C204.634 270.614 204.854 270.838 204.996 271.121C205.139 271.404 205.21 271.72 205.21 272.068C205.21 272.417 205.139 272.733 204.996 273.018C204.856 273.303 204.638 273.53 204.344 273.7C204.049 273.867 203.672 273.951 203.212 273.951H201.78V273.316H203.189C203.506 273.316 203.761 273.261 203.954 273.151C204.146 273.041 204.286 272.893 204.373 272.706C204.461 272.518 204.505 272.305 204.505 272.068C204.505 271.832 204.461 271.62 204.373 271.433C204.286 271.246 204.145 271.1 203.951 270.994C203.757 270.886 203.499 270.832 203.177 270.832H201.918V276.111H201.202Z" fill="#E8E8E3"/>
<path d="M189.586 118.552L166.095 118.445L166.075 122.756L189.566 122.863L189.586 118.552Z" fill="#FF8A01"/>
<path opacity="0.1" d="M189.586 118.552L166.095 118.445L166.075 122.756L189.566 122.863L189.586 118.552Z" fill="black"/>
<path d="M258.448 145.02C258.632 145.002 258.813 144.959 258.986 144.892C259.239 144.793 259.459 144.625 259.621 144.407C259.782 144.189 259.879 143.93 259.9 143.659C259.9 142.207 259.9 140.088 259.9 137.366C259.9 136.006 259.9 134.48 259.9 132.8C259.9 132.389 259.9 131.959 259.9 131.53C259.959 131.114 259.869 130.689 259.644 130.334C259.518 130.163 259.355 130.024 259.166 129.927C258.977 129.831 258.769 129.779 258.557 129.777H257.132H243.935L167.543 129.493C167.347 129.49 167.154 129.534 166.979 129.621C166.804 129.709 166.653 129.837 166.538 129.996C166.318 130.353 166.233 130.778 166.301 131.192C166.301 132.106 166.301 133.019 166.301 133.932C166.301 135.759 166.301 137.586 166.301 139.412C166.301 140.326 166.301 141.239 166.301 142.152C166.263 142.578 166.263 143.006 166.301 143.431C166.349 143.613 166.438 143.782 166.561 143.925C166.685 144.067 166.839 144.18 167.013 144.253C167.193 144.325 167.386 144.359 167.579 144.353H172.228L192.514 144.463L226.855 144.673L250.008 144.856L256.301 144.929H257.936C258.311 144.929 258.493 144.929 258.493 144.929H257.936H256.301H250.008H226.855L192.514 144.819L172.228 144.737H167.579C167.323 144.747 167.068 144.704 166.83 144.609C166.59 144.507 166.376 144.35 166.205 144.152C166.034 143.955 165.911 143.72 165.844 143.468C165.791 143.228 165.773 142.982 165.789 142.737V142.061C165.789 141.148 165.789 140.234 165.789 139.321C165.789 137.494 165.789 135.668 165.789 133.841C165.789 132.928 165.789 132.014 165.789 131.101C165.772 130.858 165.772 130.613 165.789 130.37C165.823 130.102 165.927 129.846 166.091 129.63C166.248 129.41 166.457 129.231 166.698 129.108C166.94 128.986 167.208 128.924 167.479 128.927L243.871 129.347L257.068 129.439H258.493C258.744 129.439 258.991 129.499 259.214 129.616C259.437 129.732 259.628 129.9 259.772 130.105C260.029 130.502 260.133 130.98 260.064 131.448C260.064 131.877 260.064 132.306 260.064 132.717C260.064 134.38 260.064 135.905 260.064 137.284C260.064 140.024 260 142.125 259.982 143.586C259.96 143.867 259.857 144.136 259.688 144.361C259.518 144.586 259.287 144.757 259.023 144.856C258.85 144.963 258.651 145.02 258.448 145.02Z" fill="#E0E0E0"/>
<path d="M216.114 134.078H173.151V138.106H216.114V134.078Z" fill="#FF8A01"/>
<path opacity="0.2" d="M216.114 134.078H173.151V138.106H216.114V134.078Z" fill="white"/>
<path d="M189.425 157.879L165.934 157.772L165.915 162.083L189.406 162.19L189.425 157.879Z" fill="#FF8A01"/>
<path opacity="0.1" d="M189.425 157.879L165.934 157.772L165.915 162.083L189.406 162.19L189.425 157.879Z" fill="black"/>
<path d="M257.854 184.349C258.039 184.326 258.222 184.292 258.402 184.248C258.657 184.167 258.892 184.032 259.09 183.852C259.289 183.673 259.447 183.453 259.553 183.207C259.697 182.838 259.753 182.441 259.717 182.047C259.717 181.609 259.717 181.134 259.717 180.604C259.717 179.544 259.717 178.339 259.717 176.951V171.151C259.761 170.731 259.668 170.308 259.452 169.945C259.227 169.573 258.873 169.297 258.457 169.169C258.002 169.088 257.539 169.063 257.078 169.096H243.935L167.808 168.813C167.398 168.814 167.003 168.963 166.696 169.234C166.388 169.504 166.19 169.877 166.136 170.283C166.136 171.151 166.136 172.11 166.136 173.023C166.136 174.85 166.136 176.677 166.136 178.503C166.136 179.417 166.136 180.33 166.136 181.243C166.102 181.67 166.121 182.1 166.191 182.522C166.305 182.892 166.54 183.214 166.858 183.435C167.195 183.649 167.592 183.752 167.991 183.728H169.26H171.9L192.112 183.828L226.335 184.038L249.406 184.221L255.68 184.294H249.406H226.335L192.094 184.257L171.881 184.184H167.908C167.414 184.213 166.924 184.082 166.511 183.81C166.095 183.522 165.792 183.099 165.652 182.613C165.571 182.149 165.546 181.677 165.579 181.207C165.579 180.293 165.579 179.38 165.579 178.467C165.579 176.64 165.579 174.813 165.579 172.987C165.579 172.073 165.579 171.16 165.579 170.247C165.646 169.724 165.901 169.244 166.296 168.896C166.691 168.548 167.199 168.356 167.726 168.356L243.853 168.776L256.996 168.877C257.485 168.847 257.976 168.88 258.457 168.977C258.931 169.132 259.332 169.458 259.58 169.89C259.817 170.293 259.919 170.76 259.873 171.224C259.873 171.653 259.873 172.073 259.873 172.493C259.873 174.147 259.873 175.663 259.873 177.06C259.873 178.458 259.873 179.636 259.873 180.714C259.873 181.234 259.873 181.718 259.873 182.166C259.906 182.574 259.84 182.985 259.681 183.362C259.562 183.614 259.391 183.838 259.178 184.017C258.965 184.197 258.716 184.329 258.448 184.403C258.248 184.42 258.047 184.401 257.854 184.349Z" fill="#E0E0E0"/>
<path d="M189.248 198.914L165.758 198.808L165.738 203.119L189.229 203.225L189.248 198.914Z" fill="#FF8A01"/>
<path opacity="0.1" d="M189.248 198.914L165.758 198.808L165.738 203.119L189.229 203.225L189.248 198.914Z" fill="black"/>
<path d="M257.671 225.367C257.856 225.345 258.039 225.311 258.219 225.266C258.473 225.186 258.707 225.052 258.906 224.874C259.104 224.696 259.262 224.478 259.37 224.234C259.513 223.865 259.57 223.468 259.535 223.074C259.535 222.627 259.535 222.161 259.535 221.622C259.535 220.572 259.535 219.357 259.535 217.969V212.169C259.578 211.749 259.485 211.326 259.27 210.963C259.039 210.598 258.686 210.326 258.274 210.196C257.82 210.112 257.356 210.084 256.895 210.114H243.752L167.625 209.831C167.216 209.832 166.82 209.981 166.513 210.252C166.206 210.522 166.007 210.895 165.954 211.301C165.954 212.215 165.954 213.128 165.954 214.041C165.954 215.868 165.954 217.695 165.954 219.521C165.954 220.435 165.954 221.348 165.954 222.261C165.92 222.685 165.938 223.112 166.009 223.531C166.118 223.904 166.354 224.226 166.675 224.444C167.011 224.663 167.408 224.766 167.808 224.736H171.781L191.993 224.846L226.216 225.056L249.287 225.239L255.561 225.312H249.287H226.216L191.993 225.211L171.781 225.129H167.808C167.313 225.163 166.822 225.031 166.41 224.755C165.995 224.467 165.691 224.044 165.552 223.558C165.47 223.094 165.445 222.622 165.479 222.152C165.479 221.238 165.479 220.325 165.479 219.412C165.479 217.585 165.479 215.758 165.479 213.932C165.479 213.018 165.479 212.105 165.479 211.146C165.543 210.625 165.796 210.145 166.19 209.796C166.583 209.448 167.091 209.256 167.616 209.255L243.743 209.675L256.886 209.776C257.375 209.746 257.866 209.78 258.347 209.876C258.822 210.031 259.222 210.357 259.471 210.79C259.707 211.192 259.809 211.659 259.763 212.123C259.763 212.553 259.763 212.982 259.763 213.393C259.763 215.046 259.763 216.562 259.763 217.96C259.763 219.357 259.763 220.535 259.763 221.613C259.763 222.133 259.763 222.618 259.763 223.065C259.798 223.474 259.732 223.884 259.571 224.262C259.453 224.514 259.281 224.737 259.068 224.917C258.855 225.096 258.606 225.228 258.338 225.303C258.124 225.376 257.895 225.398 257.671 225.367Z" fill="#E0E0E0"/>
<path d="M215.197 174.546L172.234 174.351L172.216 178.378L215.179 178.573L215.197 174.546Z" fill="#FF8A01"/>
<path opacity="0.2" d="M215.197 174.546L172.234 174.351L172.216 178.378L215.179 178.573L215.197 174.546Z" fill="white"/>
<path d="M176.119 217.914C176.093 218.281 175.958 218.633 175.734 218.924C175.509 219.216 175.203 219.436 174.855 219.555C174.506 219.675 174.131 219.69 173.774 219.598C173.417 219.506 173.095 219.312 172.848 219.039C172.601 218.765 172.439 218.426 172.383 218.062C172.327 217.698 172.38 217.325 172.534 216.99C172.687 216.656 172.936 216.373 173.249 216.179C173.562 215.984 173.925 215.886 174.293 215.895C174.802 215.924 175.279 216.151 175.621 216.529C175.963 216.907 176.142 217.405 176.119 217.914Z" fill="#FF8A01"/>
<path d="M181.937 217.941C181.955 218.199 181.92 218.457 181.834 218.7C181.747 218.944 181.612 219.167 181.436 219.356C181.26 219.544 181.047 219.695 180.81 219.798C180.574 219.901 180.318 219.954 180.06 219.954C179.802 219.954 179.547 219.901 179.31 219.798C179.073 219.695 178.86 219.544 178.684 219.356C178.508 219.167 178.373 218.944 178.287 218.7C178.201 218.457 178.165 218.199 178.183 217.941C178.165 217.684 178.201 217.425 178.287 217.182C178.373 216.939 178.508 216.716 178.684 216.527C178.86 216.338 179.073 216.188 179.31 216.085C179.547 215.982 179.802 215.929 180.06 215.929C180.318 215.929 180.574 215.982 180.81 216.085C181.047 216.188 181.26 216.338 181.436 216.527C181.612 216.716 181.747 216.939 181.834 217.182C181.92 217.425 181.955 217.684 181.937 217.941Z" fill="#FF8A01"/>
<path d="M187.764 217.969C187.737 218.336 187.603 218.687 187.378 218.979C187.153 219.271 186.848 219.49 186.5 219.61C186.151 219.73 185.775 219.745 185.419 219.653C185.062 219.561 184.74 219.367 184.493 219.093C184.246 218.82 184.084 218.481 184.028 218.116C183.972 217.752 184.024 217.38 184.178 217.045C184.332 216.71 184.581 216.428 184.894 216.234C185.206 216.039 185.569 215.94 185.938 215.95C186.446 215.981 186.921 216.209 187.263 216.587C187.604 216.964 187.784 217.46 187.764 217.969Z" fill="#FF8A01"/>
<path d="M193.582 217.996C193.555 218.363 193.421 218.715 193.196 219.007C192.971 219.298 192.666 219.518 192.317 219.638C191.969 219.757 191.593 219.772 191.236 219.68C190.88 219.589 190.558 219.394 190.311 219.121C190.063 218.848 189.902 218.508 189.846 218.144C189.79 217.78 189.842 217.407 189.996 217.073C190.15 216.738 190.399 216.456 190.711 216.261C191.024 216.066 191.387 215.968 191.755 215.978C192.263 216.008 192.739 216.237 193.081 216.614C193.422 216.991 193.602 217.488 193.582 217.996Z" fill="#FF8A01"/>
<path d="M199.4 218.014C199.375 218.382 199.242 218.735 199.018 219.028C198.794 219.321 198.489 219.542 198.141 219.663C197.793 219.784 197.416 219.8 197.059 219.709C196.702 219.618 196.379 219.424 196.131 219.151C195.883 218.878 195.72 218.539 195.664 218.174C195.607 217.81 195.659 217.437 195.813 217.102C195.966 216.766 196.215 216.484 196.528 216.289C196.841 216.094 197.205 215.995 197.573 216.005C198.08 216.036 198.554 216.263 198.895 216.638C199.236 217.014 199.418 217.507 199.4 218.014Z" fill="#FF8A01"/>
<path d="M205.227 218.042C205.202 218.408 205.071 218.758 204.849 219.051C204.628 219.343 204.325 219.564 203.98 219.687C203.634 219.81 203.26 219.829 202.903 219.741C202.547 219.654 202.224 219.465 201.974 219.196C201.724 218.928 201.557 218.592 201.496 218.231C201.434 217.869 201.479 217.497 201.626 217.161C201.773 216.825 202.015 216.539 202.322 216.338C202.629 216.138 202.988 216.031 203.355 216.032C203.869 216.051 204.355 216.274 204.706 216.65C205.057 217.027 205.245 217.527 205.227 218.042Z" fill="#FF8A01"/>
<path d="M211.045 218.069C211.063 218.326 211.028 218.585 210.942 218.828C210.856 219.072 210.72 219.295 210.544 219.483C210.368 219.672 210.155 219.823 209.919 219.925C209.682 220.028 209.426 220.081 209.168 220.081C208.91 220.081 208.655 220.028 208.418 219.925C208.181 219.823 207.968 219.672 207.792 219.483C207.616 219.295 207.481 219.072 207.395 218.828C207.309 218.585 207.273 218.326 207.291 218.069C207.273 217.812 207.309 217.553 207.395 217.31C207.481 217.066 207.616 216.843 207.792 216.655C207.968 216.466 208.181 216.315 208.418 216.213C208.655 216.11 208.91 216.057 209.168 216.057C209.426 216.057 209.682 216.11 209.919 216.213C210.155 216.315 210.368 216.466 210.544 216.655C210.72 216.843 210.856 217.066 210.942 217.31C211.028 217.553 211.063 217.812 211.045 218.069Z" fill="#FF8A01"/>
<path d="M216.863 218.096C216.838 218.462 216.707 218.813 216.485 219.105C216.264 219.398 215.961 219.619 215.616 219.742C215.27 219.864 214.896 219.883 214.539 219.796C214.183 219.709 213.86 219.52 213.61 219.251C213.36 218.983 213.193 218.647 213.132 218.285C213.07 217.924 213.115 217.552 213.262 217.216C213.409 216.88 213.651 216.594 213.958 216.393C214.265 216.192 214.624 216.086 214.991 216.087C215.505 216.106 215.991 216.328 216.342 216.705C216.693 217.082 216.881 217.582 216.863 218.096Z" fill="#FF8A01"/>
<path d="M222.681 218.124C222.656 218.492 222.523 218.844 222.3 219.137C222.076 219.43 221.771 219.651 221.422 219.772C221.074 219.894 220.698 219.91 220.34 219.819C219.983 219.728 219.66 219.534 219.412 219.261C219.164 218.988 219.002 218.648 218.945 218.284C218.889 217.919 218.94 217.546 219.094 217.211C219.248 216.876 219.497 216.593 219.81 216.398C220.123 216.203 220.486 216.105 220.855 216.115C221.361 216.145 221.835 216.372 222.177 216.748C222.518 217.123 222.699 217.617 222.681 218.124Z" fill="#FF8A01"/>
<g opacity="0.2">
<path d="M176.119 217.914C176.093 218.281 175.958 218.633 175.734 218.924C175.509 219.216 175.203 219.436 174.855 219.555C174.506 219.675 174.131 219.69 173.774 219.598C173.417 219.506 173.095 219.312 172.848 219.039C172.601 218.765 172.439 218.426 172.383 218.062C172.327 217.698 172.38 217.325 172.534 216.99C172.687 216.656 172.936 216.373 173.249 216.179C173.562 215.984 173.925 215.886 174.293 215.895C174.802 215.924 175.279 216.151 175.621 216.529C175.963 216.907 176.142 217.405 176.119 217.914Z" fill="white"/>
<path d="M181.937 217.941C181.955 218.199 181.92 218.457 181.834 218.7C181.747 218.944 181.612 219.167 181.436 219.355C181.26 219.544 181.047 219.695 180.81 219.798C180.574 219.901 180.318 219.954 180.06 219.954C179.802 219.954 179.547 219.901 179.31 219.798C179.073 219.695 178.86 219.544 178.684 219.355C178.508 219.167 178.373 218.944 178.287 218.7C178.201 218.457 178.165 218.199 178.183 217.941C178.165 217.684 178.201 217.425 178.287 217.182C178.373 216.939 178.508 216.716 178.684 216.527C178.86 216.338 179.073 216.188 179.31 216.085C179.547 215.982 179.802 215.929 180.06 215.929C180.318 215.929 180.574 215.982 180.81 216.085C181.047 216.188 181.26 216.338 181.436 216.527C181.612 216.716 181.747 216.939 181.834 217.182C181.92 217.425 181.955 217.684 181.937 217.941Z" fill="white"/>
<path d="M187.764 217.969C187.737 218.336 187.603 218.687 187.378 218.979C187.153 219.271 186.848 219.49 186.5 219.61C186.151 219.73 185.775 219.745 185.419 219.653C185.062 219.561 184.74 219.367 184.493 219.093C184.246 218.82 184.084 218.481 184.028 218.116C183.972 217.752 184.024 217.38 184.178 217.045C184.332 216.71 184.581 216.428 184.894 216.234C185.206 216.039 185.569 215.94 185.938 215.95C186.446 215.981 186.921 216.209 187.263 216.587C187.604 216.964 187.784 217.46 187.764 217.969Z" fill="white"/>
<path d="M193.582 217.996C193.555 218.363 193.421 218.715 193.196 219.007C192.971 219.298 192.666 219.518 192.317 219.638C191.969 219.757 191.593 219.772 191.236 219.68C190.88 219.589 190.558 219.394 190.311 219.121C190.063 218.848 189.902 218.508 189.846 218.144C189.79 217.78 189.842 217.407 189.996 217.073C190.15 216.738 190.399 216.456 190.711 216.261C191.024 216.066 191.387 215.968 191.755 215.978C192.263 216.008 192.739 216.237 193.081 216.614C193.422 216.991 193.602 217.488 193.582 217.996Z" fill="white"/>
<path d="M199.4 218.014C199.375 218.382 199.242 218.735 199.018 219.028C198.794 219.321 198.489 219.542 198.141 219.663C197.793 219.784 197.416 219.8 197.059 219.709C196.702 219.618 196.379 219.424 196.131 219.151C195.883 218.878 195.72 218.539 195.664 218.174C195.607 217.81 195.659 217.437 195.813 217.102C195.966 216.766 196.215 216.484 196.528 216.289C196.841 216.094 197.205 215.995 197.573 216.005C198.08 216.036 198.554 216.263 198.895 216.638C199.236 217.013 199.418 217.507 199.4 218.014Z" fill="white"/>
<path d="M205.228 218.042C205.203 218.408 205.071 218.758 204.85 219.051C204.628 219.343 204.326 219.564 203.98 219.687C203.634 219.81 203.26 219.829 202.904 219.741C202.547 219.654 202.224 219.465 201.974 219.196C201.724 218.928 201.558 218.592 201.496 218.231C201.434 217.869 201.479 217.497 201.626 217.161C201.773 216.825 202.015 216.539 202.322 216.338C202.629 216.138 202.988 216.031 203.355 216.032C203.87 216.051 204.356 216.274 204.707 216.65C205.058 217.027 205.245 217.527 205.228 218.042Z" fill="white"/>
<path d="M211.045 218.069C211.063 218.326 211.028 218.585 210.942 218.828C210.856 219.072 210.72 219.295 210.544 219.483C210.368 219.672 210.155 219.823 209.919 219.925C209.682 220.028 209.426 220.081 209.168 220.081C208.91 220.081 208.655 220.028 208.418 219.925C208.181 219.823 207.968 219.672 207.792 219.483C207.616 219.295 207.481 219.072 207.395 218.828C207.309 218.585 207.273 218.326 207.291 218.069C207.273 217.812 207.309 217.553 207.395 217.31C207.481 217.066 207.616 216.843 207.792 216.655C207.968 216.466 208.181 216.315 208.418 216.213C208.655 216.11 208.91 216.057 209.168 216.057C209.426 216.057 209.682 216.11 209.919 216.213C210.155 216.315 210.368 216.466 210.544 216.655C210.72 216.843 210.856 217.066 210.942 217.31C211.028 217.553 211.063 217.812 211.045 218.069Z" fill="white"/>
<path d="M216.863 218.096C216.838 218.462 216.707 218.813 216.485 219.105C216.264 219.398 215.961 219.619 215.616 219.742C215.27 219.864 214.896 219.883 214.539 219.796C214.183 219.709 213.86 219.52 213.61 219.251C213.36 218.983 213.193 218.647 213.132 218.285C213.07 217.924 213.115 217.552 213.262 217.216C213.409 216.88 213.651 216.594 213.958 216.393C214.265 216.192 214.624 216.086 214.991 216.087C215.505 216.106 215.991 216.328 216.342 216.705C216.693 217.082 216.881 217.582 216.863 218.096Z" fill="white"/>
<path d="M222.681 218.124C222.656 218.492 222.523 218.844 222.3 219.137C222.076 219.43 221.771 219.651 221.422 219.772C221.074 219.894 220.698 219.91 220.34 219.819C219.983 219.728 219.66 219.534 219.412 219.261C219.164 218.988 219.002 218.648 218.945 218.284C218.889 217.919 218.94 217.546 219.094 217.211C219.248 216.876 219.497 216.593 219.81 216.398C220.123 216.203 220.486 216.105 220.855 216.115C221.361 216.145 221.835 216.372 222.177 216.748C222.518 217.123 222.699 217.617 222.681 218.124Z" fill="white"/>
</g>
<path d="M214.416 86.2741C215.05 85.9947 215.588 85.5349 215.963 84.9519C216.339 84.3689 216.534 83.6884 216.525 82.9952C216.549 82.5446 216.481 82.0938 216.325 81.6705C216.168 81.2471 215.928 80.86 215.617 80.5326C215.306 80.2053 214.932 79.9446 214.518 79.7665C214.103 79.5883 213.657 79.4965 213.205 79.4965C212.754 79.4965 212.308 79.5883 211.893 79.7665C211.478 79.9446 211.104 80.2053 210.794 80.5326C210.483 80.86 210.242 81.2471 210.086 81.6705C209.93 82.0938 209.862 82.5446 209.885 82.9952C209.871 83.6954 210.065 84.384 210.442 84.974C210.82 85.5641 211.363 86.0292 212.004 86.3106C206.89 87.0778 207.118 92.6309 207.118 92.6309L219.211 92.6857C219.211 92.6857 219.494 87.0322 214.416 86.2741Z" fill="#FF8A01"/>
<path opacity="0.1" d="M214.416 86.2741C215.05 85.9947 215.588 85.5349 215.963 84.9519C216.339 84.3689 216.534 83.6884 216.525 82.9952C216.549 82.5446 216.481 82.0938 216.325 81.6705C216.168 81.2471 215.928 80.86 215.617 80.5326C215.306 80.2053 214.932 79.9446 214.518 79.7665C214.103 79.5883 213.657 79.4965 213.205 79.4965C212.754 79.4965 212.308 79.5883 211.893 79.7665C211.478 79.9446 211.104 80.2053 210.794 80.5326C210.483 80.86 210.242 81.2471 210.086 81.6705C209.93 82.0938 209.862 82.5446 209.885 82.9952C209.871 83.6954 210.065 84.384 210.442 84.974C210.82 85.5641 211.363 86.0292 212.004 86.3106C206.89 87.0778 207.118 92.6309 207.118 92.6309L219.211 92.6857C219.211 92.6857 219.494 87.0322 214.416 86.2741Z" fill="black"/>
<path d="M234.066 96.2673L190.966 96.0717L190.942 101.223L234.042 101.418L234.066 96.2673Z" fill="#FF8A01"/>
<path opacity="0.2" d="M234.066 96.2673L190.966 96.0717L190.942 101.223L234.042 101.418L234.066 96.2673Z" fill="white"/>
<path d="M75.6156 122.963H75.1864L73.9442 123.054C73.272 123.095 72.6036 123.183 71.944 123.319C71.5168 123.379 71.0931 123.462 70.6745 123.566L69.2588 123.959C66.8493 124.698 64.5758 125.824 62.5275 127.292C59.8211 129.257 57.5613 131.772 55.8966 134.672C54.9182 136.344 54.1396 138.125 53.5767 139.979C52.9854 141.993 52.6449 144.073 52.5629 146.171C52.5085 147.273 52.5268 148.378 52.6177 149.477C52.6177 150.034 52.773 150.592 52.8461 151.158C52.9075 151.729 53.0144 152.294 53.1657 152.847C53.987 156.513 55.6535 159.935 58.0321 162.842C60.4108 165.748 63.4358 168.059 66.8658 169.589C69.3484 170.66 72.0093 171.258 74.7114 171.352C77.5024 171.505 80.2961 171.105 82.9315 170.174L83.7352 169.872H83.8448L83.9362 169.927L95.4534 175.772L95.1155 176.065C93.8825 172.247 92.6951 168.548 91.5443 164.995V164.858L91.6448 164.757C94.4387 161.943 96.5127 158.497 97.6911 154.711C98.7583 151.249 99.0698 147.599 98.6044 144.006C98.1905 140.814 97.164 137.731 95.5813 134.928C94.217 132.52 92.4571 130.358 90.3752 128.534C88.6577 127.091 86.7566 125.881 84.7216 124.936C83.1819 124.272 81.5782 123.767 79.9357 123.429L78.1091 123.127L76.7847 123.027L75.981 122.972H75.707C75.798 122.962 75.8899 122.962 75.981 122.972H76.7939L78.1182 123.027L79.9449 123.292C81.6078 123.605 83.2333 124.092 84.7947 124.744C86.8647 125.678 88.7999 126.885 90.5488 128.333C92.6688 130.149 94.4661 132.311 95.8644 134.727C97.492 137.56 98.55 140.685 98.9789 143.924C99.4829 147.572 99.1932 151.286 98.1295 154.811C96.9434 158.676 94.8373 162.196 91.9918 165.068L92.0466 164.831C93.1974 168.383 94.3939 172.082 95.6361 175.891L95.8096 176.448L95.289 176.183L83.7718 170.347H83.9727L83.1507 170.649C80.4645 171.594 77.6191 172.003 74.7754 171.854C72.015 171.749 69.2984 171.13 66.7654 170.027C61.9335 167.958 57.9135 164.362 55.3212 159.789C54.1283 157.677 53.2572 155.399 52.7365 153.03C52.5939 152.462 52.4871 151.885 52.4168 151.304C52.3437 150.729 52.225 150.162 52.1976 149.596C51.9504 146.346 52.2939 143.079 53.2114 139.951C53.7882 138.072 54.5886 136.269 55.5952 134.581C57.2996 131.654 59.6065 129.123 62.3631 127.155C64.4452 125.683 66.7568 124.566 69.204 123.849L70.6379 123.484C71.06 123.386 71.4868 123.31 71.9166 123.255C72.583 123.132 73.2577 123.059 73.9351 123.036L75.1864 122.99C75.3287 122.971 75.4721 122.962 75.6156 122.963Z" fill="#FF8A01"/>
<path d="M80.8219 144.262H79.1322L75.4788 139.129V135.759C75.4788 135.759 72.8667 135.594 73.1772 140.006C73.4878 144.417 73.1772 143.294 73.1772 143.294C73.1772 143.294 67.6333 143.294 67.1766 143.796C66.7199 144.299 66.6925 149.651 66.6286 152.637C66.5936 153.357 66.8002 154.068 67.2155 154.657C67.6309 155.247 68.2312 155.68 68.9211 155.889C69.1144 155.942 69.3141 155.97 69.5147 155.971C70.903 155.971 77.9631 154.848 77.9631 154.848H80.8767L80.8219 144.262Z" fill="#FF8A01"/>
<path d="M85.6532 143.358L84.612 154.902H81.7258V143.595L85.6532 143.358Z" fill="#FF8A01"/>
<path d="M120.077 378.388V370.579L106.075 370.478L105.957 382.288L106.824 382.351C110.688 382.598 126.479 382.963 129.073 382.16C131.959 381.265 120.077 378.388 120.077 378.388Z" fill="#FF8A01"/>
<path d="M129.402 381.429C129.402 381.557 124.159 381.666 117.702 381.666C111.245 381.666 106.002 381.557 106.002 381.429C106.002 381.301 111.245 381.192 117.702 381.192C124.159 381.192 129.402 381.301 129.402 381.429Z" fill="#263238"/>
<path d="M120.323 379.986C120.204 379.922 120.323 379.511 120.606 379.073C120.889 378.634 121.273 378.452 121.364 378.543C121.456 378.634 121.264 378.981 120.99 379.356C120.716 379.73 120.442 380.05 120.323 379.986Z" fill="#263238"/>
<path d="M121.218 380.497C121.09 380.497 121.154 379.986 121.428 379.502C121.702 379.018 122.068 378.726 122.168 378.799C122.269 378.872 122.104 379.283 121.849 379.712C121.593 380.141 121.337 380.543 121.218 380.497Z" fill="#263238"/>
<path d="M110.222 381.393C110.167 381.393 109.957 381.228 109.655 380.881C109.287 380.435 108.877 380.025 108.431 379.657C107.993 379.307 107.47 379.077 106.915 378.99C106.486 378.936 106.212 378.99 106.185 378.936C106.157 378.881 106.422 378.689 106.924 378.652C107.587 378.638 108.234 378.858 108.751 379.274C109.235 379.668 109.644 380.148 109.957 380.689C110.167 381.091 110.276 381.356 110.222 381.393Z" fill="#263238"/>
<path d="M120.369 378.515C120.433 378.625 120.195 378.899 119.794 379.045C119.392 379.191 119.035 379.137 119.017 379.045C118.999 378.954 119.282 378.762 119.629 378.634C119.976 378.506 120.296 378.406 120.369 378.515Z" fill="#263238"/>
<path d="M120.15 377.757C120.15 377.894 119.784 378.004 119.309 378.013C118.834 378.022 118.46 377.913 118.469 377.785C118.478 377.657 118.853 377.538 119.309 377.529C119.766 377.52 120.131 377.63 120.15 377.757Z" fill="#263238"/>
<path d="M154.555 378.388V370.579L140.554 370.478L140.435 382.169L141.303 382.233C145.166 382.479 160.967 382.963 163.552 382.16C166.438 381.265 154.555 378.388 154.555 378.388Z" fill="#FF8A01"/>
<path d="M163.881 381.447C163.881 381.575 158.647 381.685 152.181 381.685C145.714 381.685 140.49 381.575 140.49 381.447C140.49 381.319 145.723 381.21 152.181 381.21C158.638 381.21 163.881 381.319 163.881 381.447Z" fill="#263238"/>
<path d="M154.802 379.986C154.692 379.922 154.802 379.511 155.085 379.073C155.368 378.634 155.752 378.452 155.843 378.543C155.934 378.634 155.743 378.981 155.469 379.356C155.195 379.73 154.921 380.05 154.802 379.986Z" fill="#263238"/>
<path d="M155.697 380.497C155.578 380.497 155.633 379.986 155.916 379.502C156.199 379.018 156.556 378.726 156.656 378.799C156.757 378.872 156.583 379.283 156.327 379.712C156.072 380.141 155.825 380.543 155.697 380.497Z" fill="#263238"/>
<path d="M144.701 381.393C144.646 381.393 144.445 381.228 144.134 380.881C143.766 380.435 143.356 380.025 142.91 379.657C142.472 379.307 141.949 379.077 141.394 378.99C140.974 378.936 140.691 378.99 140.664 378.936C140.636 378.881 140.901 378.689 141.403 378.652C142.066 378.638 142.713 378.858 143.23 379.274C143.717 379.666 144.126 380.146 144.436 380.689C144.646 381.091 144.755 381.356 144.701 381.393Z" fill="#263238"/>
<path d="M154.847 378.515C154.911 378.625 154.674 378.899 154.272 379.045C153.87 379.191 153.514 379.137 153.496 379.045C153.477 378.954 153.761 378.762 154.108 378.634C154.455 378.506 154.774 378.406 154.847 378.515Z" fill="#263238"/>
<path d="M154.647 377.757C154.647 377.894 154.281 378.004 153.806 378.013C153.331 378.022 152.966 377.913 152.975 377.785C152.984 377.657 153.35 377.538 153.806 377.529C154.263 377.52 154.647 377.63 154.647 377.757Z" fill="#263238"/>
<path d="M206.141 146.491C205.775 146.116 204.871 146.299 204.871 146.299C204.962 145.773 204.962 145.235 204.871 144.71C204.707 144.198 203.556 144.299 203.556 144.299C203.503 143.868 203.503 143.432 203.556 143.002C203.565 142.906 203.545 142.81 203.497 142.727C203.45 142.643 203.378 142.577 203.291 142.536C202.747 142.314 202.162 142.208 201.574 142.225C200.871 141.723 203.72 137.732 204.78 136.453C205.839 135.174 205.648 134.179 204.707 134.179C204.058 134.179 200.734 138.015 199.711 139.303C198.688 140.59 195.975 144.171 195.884 141.312C195.793 138.453 194.642 136.298 193.92 135.932C193.199 135.567 192.432 136.426 192.824 137.22C193.169 138.123 193.385 139.07 193.464 140.033C193.563 140.801 193.529 141.579 193.363 142.335C193.06 143.741 192.648 145.121 192.13 146.463H192.057C192.057 146.463 172.128 165.579 170.685 166.94C169.397 168.164 143.495 165.488 138.298 164.94C136.532 164.682 134.749 164.56 132.964 164.575C130.708 164.675 130.306 164.995 128.059 165.022C122.385 165.085 116.724 165.583 111.126 166.511C108.591 166.942 106.223 168.061 104.281 169.746C102.339 171.43 100.896 173.616 100.111 176.065C94.8777 192.413 83.0225 231.112 80.931 252.849C79.3505 255.715 77.9237 258.663 76.6565 261.681C75.1861 265.681 75.5423 265.818 76.0355 265.91C77.3689 266.156 78.8851 258.978 79.4514 260.713C80.0176 262.448 76.5743 269.271 77.9717 269.472C79.7984 269.728 81.2506 262.165 81.4242 261.562C81.5977 260.959 82.5019 261.151 82.3375 261.718C82.0726 262.521 79.5062 271.043 81.2963 271.317C82.2827 271.463 82.3923 269.664 82.3923 269.664C82.3923 269.664 84.219 261.507 85.0501 261.672C85.8813 261.836 84.9953 266.65 84.5752 268.257C84.1551 269.865 84.7396 270.677 85.5981 270.285C86.1827 270.011 87.5801 265.124 87.9637 263.535C88.3473 261.946 89.3063 257.544 90.5941 260.092C91.8819 262.64 93.8365 264.12 94.6402 264.156C94.8213 264.135 94.992 264.061 95.1304 263.942C95.2687 263.823 95.3684 263.666 95.4165 263.49C95.4647 263.314 95.4591 263.128 95.4005 262.955C95.3419 262.783 95.233 262.632 95.0877 262.521C94.3964 261.846 93.8031 261.078 93.325 260.238C92.8989 259.584 92.5899 258.861 92.4116 258.101C92.0436 256.586 91.8294 255.037 91.7723 253.479L91.6262 252.566C93.6721 242.437 99.5631 212.708 108.066 193.719L111.555 200.898L113.071 206.214L103.774 229.166L143.431 228.646L137.512 205.867L144.7 182.12C152.473 182.294 172.429 182.586 175.754 181.079C179.937 179.252 201.574 151.925 201.574 151.925C202.984 150.829 204.335 149.658 205.62 148.418C205.62 148.418 206.935 147.313 206.141 146.491Z" fill="#FFBE9D"/>
<path d="M102.029 212.205C103.18 208.278 109.089 188.86 109.089 188.86C109.089 188.86 111.993 204.689 111.226 206.597C110.52 208.232 109.687 209.807 108.733 211.31C102.029 221.512 102.906 226.618 102.906 226.618L143.412 225.385C143.504 219.722 140.152 206.552 139.457 204.451C138.763 202.35 141.074 195.473 141.074 195.473C141.074 195.473 145.641 190.824 145.476 188.431C145.39 186.282 145.124 184.143 144.682 182.038L169.342 182.951L168.566 166.237L133.146 162.693C131.913 166.173 120.761 164.465 120.761 164.465C108.724 164.867 107.975 167.077 102.97 170.968C97.9644 174.859 89.6804 208.251 89.6804 208.251L102.029 212.205Z" fill="#FF8A01"/>
<path d="M125.977 208.251C125.275 208.376 124.56 208.413 123.849 208.36C122.524 208.36 120.707 208.269 118.707 208.068C116.706 207.867 114.898 207.584 113.61 207.328C112.9 207.237 112.204 207.059 111.537 206.798C112.251 206.799 112.963 206.866 113.665 206.999C114.962 207.164 116.761 207.392 118.752 207.593C120.743 207.794 122.552 207.931 123.858 208.022C124.57 208.031 125.279 208.108 125.977 208.251Z" fill="#263238"/>
<path d="M128.754 204.807C128.051 205.151 127.309 205.406 126.543 205.565C122.899 206.523 119.14 206.969 115.373 206.89C114.594 206.915 113.814 206.841 113.053 206.671C113.822 206.573 114.598 206.534 115.373 206.552C116.807 206.506 118.78 206.406 120.954 206.15C123.127 205.894 125.064 205.529 126.434 205.237C127.195 205.033 127.97 204.89 128.754 204.807Z" fill="#263238"/>
<path d="M142.38 189.445C142.362 190.141 142.267 190.833 142.097 191.509C141.86 192.779 141.494 194.514 141.029 196.414C140.563 198.313 140.115 200.067 139.713 201.254C139.552 201.934 139.313 202.593 139.001 203.218C139.052 202.524 139.181 201.838 139.385 201.172C139.732 199.747 140.124 198.103 140.563 196.304C141.001 194.505 141.421 192.861 141.768 191.436C141.892 190.75 142.097 190.082 142.38 189.445Z" fill="#263238"/>
<path d="M102.458 209.876C100.345 209.55 98.26 209.065 96.2202 208.424C94.1359 207.937 92.0905 207.296 90.1008 206.506C92.2128 206.838 94.2977 207.323 96.3389 207.958C98.4238 208.444 100.469 209.085 102.458 209.876Z" fill="#263238"/>
<path d="M145.121 181.837C144.776 181.896 144.424 181.896 144.08 181.837C143.126 181.739 142.189 181.515 141.294 181.17C139.8 180.609 138.44 179.741 137.301 178.623C136.162 177.504 135.27 176.16 134.681 174.676C134.031 173.044 133.753 171.287 133.868 169.534C133.909 168.088 134.342 166.68 135.12 165.461C135.667 164.639 136.484 164.035 137.43 163.753C137.683 163.683 137.945 163.649 138.207 163.652C138.389 163.652 138.481 163.652 138.481 163.652C138.481 163.652 138.097 163.652 137.485 163.899C136.617 164.219 135.881 164.821 135.394 165.607C134.152 167.561 133.804 171.132 135.129 174.466C135.745 176.038 136.71 177.45 137.951 178.594C138.968 179.531 140.139 180.285 141.413 180.823C142.608 181.295 143.851 181.635 145.121 181.837Z" fill="#263238"/>
<path d="M166.41 182.622C166.182 179.821 166.109 177.01 166.191 174.201C166.12 171.395 166.205 168.586 166.447 165.789C166.676 168.587 166.749 171.395 166.666 174.201C166.743 177.011 166.658 179.823 166.41 182.622Z" fill="#263238"/>
<path d="M132.909 163.716C133.01 161.679 133.22 159.378 133.22 159.378C133.22 159.378 138.262 158.821 138.563 153.615C138.864 148.409 138.563 136.398 138.563 136.398L129.43 131.722L119.292 139.695L120.853 165.726L130.151 166.319C130.862 166.339 131.551 166.076 132.068 165.588C132.585 165.1 132.888 164.427 132.909 163.716Z" fill="#FFBE9D"/>
<path d="M133.813 149.496C133.813 149.496 133.813 149.596 133.731 149.715C133.663 149.801 133.575 149.869 133.475 149.914C133.375 149.958 133.265 149.978 133.156 149.97C132.571 149.97 132.005 149.295 131.804 148.509C131.709 148.128 131.709 147.73 131.804 147.349C131.823 147.183 131.883 147.024 131.978 146.887C132.074 146.75 132.203 146.639 132.352 146.564C132.475 146.513 132.613 146.513 132.736 146.564C132.827 146.609 132.901 146.683 132.946 146.774C133.01 146.929 132.946 147.029 132.946 147.02C132.946 147.011 132.946 146.929 132.854 146.838C132.807 146.772 132.736 146.727 132.657 146.71C132.578 146.693 132.495 146.706 132.425 146.746C132.313 146.814 132.22 146.909 132.155 147.022C132.089 147.136 132.053 147.264 132.051 147.395C131.974 147.735 131.974 148.087 132.051 148.427C132.233 149.139 132.727 149.715 133.165 149.77C133.251 149.781 133.338 149.775 133.421 149.751C133.505 149.728 133.582 149.687 133.649 149.633C133.759 149.559 133.795 149.486 133.813 149.496Z" fill="#EB996E"/>
<path d="M141.696 133.585C140.992 131.192 138.444 130.005 136.124 129.347C132.59 128.343 128.772 127.904 125.319 129.174C121.867 130.443 117.72 132.672 117.72 136.48C115.684 136.316 114.515 138.097 113.711 140.307C113.197 141.654 112.889 143.07 112.797 144.509C112.542 149.496 111.144 156.382 107.911 160.035C106.084 162.072 103.555 163.479 102.513 166.018C101.6 168.219 102.075 170.831 101.225 173.06C100.467 175.023 98.796 176.421 97.5721 178.129C96.3253 180.066 95.5915 182.289 95.4397 184.588C95.2879 186.887 95.7231 189.187 96.7045 191.272C97.6928 193.303 99.0844 195.112 100.794 196.588C102.504 198.064 104.497 199.176 106.651 199.857C110.917 201.155 115.466 201.199 119.757 199.985C122.977 199.215 125.981 197.725 128.543 195.628C131.165 193.487 132.966 190.506 133.64 187.189C134.288 183.463 133.247 179.672 132.471 175.964C130.041 164.246 130.735 163.634 133.804 152.756C133.877 152.564 133.914 152.363 133.969 152.172C134.024 151.98 134.051 151.888 134.087 151.742C134.175 151.312 134.221 150.875 134.224 150.436C133.776 150.603 133.29 150.638 132.822 150.538C132.355 150.438 131.925 150.206 131.585 149.87C131.244 149.512 131.006 149.068 130.896 148.586C130.787 148.103 130.81 147.6 130.964 147.13C131.179 146.616 131.5 146.152 131.906 145.77C132.312 145.388 132.794 145.095 133.32 144.911C134.334 144.49 135.421 144.271 136.416 143.805C138.526 142.801 139.988 140.718 140.983 138.535C141.802 137.023 142.054 135.267 141.696 133.585Z" fill="#263238"/>
<path d="M134.179 149.742C134.372 150.027 134.531 150.334 134.654 150.655C134.928 151.231 135.293 152.044 135.695 152.984L135.768 153.158H135.576L134.663 153.24C134.032 153.24 133.503 153.359 132.882 153.35C132.828 153.338 132.777 153.312 132.736 153.275C132.694 153.238 132.663 153.192 132.644 153.14C132.617 153.057 132.617 152.967 132.644 152.884C132.665 152.761 132.693 152.639 132.726 152.519L132.891 151.87C132.973 151.437 133.102 151.015 133.274 150.61C133.257 151.051 133.193 151.489 133.083 151.916L132.955 152.564C132.909 152.783 132.827 153.121 132.955 153.094C133.411 153.094 134.06 152.993 134.663 152.957L135.576 152.875L135.457 153.076C135.065 152.162 134.736 151.304 134.544 150.71C134.376 150.407 134.253 150.081 134.179 149.742Z" fill="#FF8A01"/>
<path d="M102.906 226.618L143.413 225.385L161.04 294.196L157.798 373.127H136.38L139.001 295.876L123.337 247.972L125.749 376.186L104.102 376.506L101.828 255.991C101.728 252.639 100.632 245.086 101.043 241.761L102.906 226.618Z" fill="#263238"/>
<path d="M128.726 248.949C128.063 248.991 127.397 248.951 126.744 248.83C125.52 248.684 123.849 248.428 122.013 248.063C120.177 247.698 118.533 247.278 117.346 246.94C116.711 246.8 116.097 246.579 115.519 246.282C115.519 246.145 118.497 246.858 122.15 247.597C125.803 248.337 128.744 248.812 128.726 248.949Z" fill="#455A64"/>
<path d="M157.579 368.798C157.579 368.925 152.729 369.035 146.747 369.035C140.764 369.035 135.905 368.925 135.905 368.798C135.905 368.67 140.755 368.56 146.747 368.56C152.738 368.56 157.579 368.661 157.579 368.798Z" fill="#455A64"/>
<path d="M125.557 372.853C125.557 372.99 120.844 373.09 115.035 373.09C109.226 373.09 104.522 372.99 104.522 372.853C104.522 372.716 109.235 372.615 115.035 372.615C120.835 372.615 125.557 372.725 125.557 372.853Z" fill="#455A64"/>
<path d="M122.762 372.524C122.634 372.524 122.068 344.512 121.492 309.96C120.917 275.409 120.579 247.378 120.698 247.378C120.816 247.378 121.401 275.381 121.967 309.951C122.534 344.521 122.899 372.524 122.762 372.524Z" fill="#455A64"/>
<path d="M154.702 368.798C154.692 368.673 154.692 368.548 154.702 368.423V367.327C154.702 366.341 154.775 364.925 154.83 363.126C154.957 359.472 155.14 354.166 155.368 347.663C155.862 334.584 156.556 316.555 157.314 296.653C157.314 296.461 157.314 296.278 157.314 296.114V296.178C152.519 276.998 148.18 259.589 145.029 246.995L141.376 232.098C140.956 230.353 140.636 228.993 140.408 228.043C140.298 227.595 140.225 227.248 140.161 226.983C140.126 226.864 140.104 226.742 140.097 226.618C140.145 226.733 140.182 226.852 140.207 226.974C140.28 227.23 140.371 227.577 140.499 228.015C140.746 228.929 141.102 230.317 141.559 232.052C142.472 235.578 143.76 240.656 145.367 246.912C148.546 259.498 152.93 276.861 157.789 296.068V296.132C157.789 296.297 157.789 296.488 157.789 296.671C156.976 316.573 156.236 334.593 155.697 347.672C155.414 354.184 155.177 359.454 155.012 363.126C154.921 364.952 154.848 366.341 154.802 367.327C154.802 367.793 154.747 368.158 154.738 368.423C154.74 368.549 154.727 368.674 154.702 368.798Z" fill="#455A64"/>
<path d="M147.714 294.506C146.176 295.012 144.591 295.364 142.983 295.557C141.01 295.895 139.33 296.132 138.572 296.169V295.986C138.818 296.059 138.946 296.105 138.946 296.141C138.946 296.178 138.791 296.141 138.535 296.141H137.987L138.535 295.977C139.248 295.767 140.928 295.42 142.901 295.064C144.483 294.72 146.096 294.534 147.714 294.506Z" fill="#455A64"/>
<path d="M147.34 297.128C145.915 297.193 144.488 297.129 143.075 296.936C141.648 296.907 140.227 296.751 138.828 296.47C141.682 296.237 144.555 296.459 147.34 297.128Z" fill="#455A64"/>
<path opacity="0.2" d="M102.733 228.07C103.212 228.686 103.817 229.194 104.506 229.561C105.195 229.927 105.954 230.145 106.733 230.198C108.364 230.391 110.015 230.361 111.638 230.107C122.095 228.947 133.174 227.878 143.413 225.385C130.16 226.125 116.159 225.878 102.906 226.618L102.769 227.75" fill="black"/>
<g opacity="0.2">
<path d="M116.387 246.748L123.858 275.737L123.337 247.972L116.387 246.748Z" fill="black"/>
</g>
</svg>
